<svg width="24" height="24" viewBox="0 0 24 24" fill="none" xmlns="http://www.w3.org/2000/svg">
<path d="M17.4481 3.90105C17.5679 4.35884 17.6382 4.83648 17.6382 5.33169C17.6382 8.24233 15.4332 10.6377 12.5969 10.9554H11.3168C8.47915 10.639 6.27295 8.24311 6.27295 5.33169C6.27295 4.83648 6.34323 4.35884 6.46334 3.9008C6.47765 3.9008 6.49145 3.89876 6.50576 3.89876C7.75568 3.89876 8.90848 4.30384 9.84611 4.98568C9.91 3.87865 10.8287 3 11.9557 3C13.0827 3 14.0014 3.87865 14.0656 4.98593C15.0029 4.30409 16.1558 3.89902 17.4057 3.89902C17.42 3.89902 17.4338 3.90105 17.4481 3.90105Z" stroke="#5F6172" stroke-width="1.5"/>
<path d="M11.9558 10.9557V20.6162" stroke="#5F6172" stroke-width="1.5" stroke-linecap="round"/>
<path d="M18.6847 14.5497L14.8637 15.5735C13.3845 15.9699 12.3222 17.1455 12 18.5404C11.6779 17.1455 10.6156 15.9699 9.13634 15.5735L5.31543 14.5497L5.28915 16.1124C5.25827 17.9476 6.48038 19.5683 8.2533 20.0434L12 21L15.7468 20.0434C17.5197 19.5683 18.7418 17.9476 18.7109 16.1124L18.6847 14.5497Z" stroke="#5F6172" stroke-width="1.5" stroke-linecap="round" stroke-linejoin="round"/>
</svg>
