<svg width="23" height="24" viewBox="0 0 23 24" fill="none" xmlns="http://www.w3.org/2000/svg">
<path fill-rule="evenodd" clip-rule="evenodd" d="M22.3 12.2555C22.3 11.4578 22.2284 10.6908 22.0955 9.95441H11.5V14.3061H17.5545C17.2938 15.7124 16.5011 16.9038 15.3097 17.7016V20.5243H18.9455C21.0727 18.5658 22.3 15.6817 22.3 12.2555Z" fill="#4285F4"/>
<path fill-rule="evenodd" clip-rule="evenodd" d="M11.4997 23.25C14.5372 23.25 17.0838 22.2426 18.9452 20.5244L15.3094 17.7017C14.302 18.3767 13.0133 18.7755 11.4997 18.7755C8.56958 18.7755 6.08947 16.7965 5.20481 14.1375H1.44629V17.0522C3.29743 20.7289 7.10197 23.25 11.4997 23.25Z" fill="#34A853"/>
<path fill-rule="evenodd" clip-rule="evenodd" d="M5.20511 14.1376C4.98011 13.4626 4.85227 12.7416 4.85227 12.0001C4.85227 11.2586 4.98011 10.5376 5.20511 9.86259V6.94781H1.44659C0.684659 8.46657 0.25 10.1847 0.25 12.0001C0.25 13.8154 0.684659 15.5336 1.44659 17.0524L5.20511 14.1376Z" fill="#FBBC05"/>
<path fill-rule="evenodd" clip-rule="evenodd" d="M11.4997 5.22443C13.1514 5.22443 14.6344 5.79205 15.8003 6.90682L19.027 3.68011C17.0787 1.86477 14.5321 0.75 11.4997 0.75C7.10197 0.75 3.29743 3.27102 1.44629 6.94773L5.20481 9.8625C6.08947 7.20341 8.56958 5.22443 11.4997 5.22443Z" fill="#EA4335"/>
</svg>
