<svg width="23" height="24" viewBox="0 0 23 24" fill="none" xmlns="http://www.w3.org/2000/svg">
<path d="M11.5 2.66249C6.34375 2.66249 2.125 6.87187 2.125 12.0562C2.125 16.7437 5.55625 20.6344 10.0375 21.3375V14.775H7.65625V12.0562H10.0375V9.98437C10.0375 7.63124 11.4344 6.33749 13.5813 6.33749C14.6031 6.33749 15.6719 6.51562 15.6719 6.51562V8.83124H14.4906C13.3281 8.83124 12.9625 9.55312 12.9625 10.2937V12.0562H15.5688L15.1469 14.775H12.9625V21.3375C15.1717 20.9886 17.1833 19.8614 18.6343 18.1594C20.0853 16.4574 20.88 14.2928 20.875 12.0562C20.875 6.87187 16.6562 2.66249 11.5 2.66249Z" fill="white"/>
</svg>
