<svg width="43" height="48" viewBox="0 0 43 48" xmlns="http://www.w3.org/2000/svg">
<path fill-rule="evenodd" clip-rule="evenodd" d="M28.1521 42.4469C34.5539 38.3166 42.8571 32.9595 42.8571 21.4286C42.8571 9.5939 33.2632 0 21.4286 0C9.5939 0 0 9.5939 0 21.4286C0 32.9595 8.30328 38.3166 14.7051 42.4469C17.729 44.3979 20.3286 46.0751 21.4286 48C22.5285 46.0751 25.1282 44.3979 28.1521 42.4469ZM21.4287 28.2857C25.2158 28.2857 28.2858 25.2157 28.2858 21.4286C28.2858 17.6415 25.2158 14.5714 21.4287 14.5714C17.6416 14.5714 14.5715 17.6415 14.5715 21.4286C14.5715 25.2157 17.6416 28.2857 21.4287 28.2857Z" fill="current"/>
</svg>
