<svg width="24" height="24" viewBox="0 0 24 24" fill="none" xmlns="http://www.w3.org/2000/svg">
<path d="M11.8359 2.85893C7.49381 2.9519 3.99519 6.77375 4 11.4134C4.00278 14.0946 5.16557 16.4804 6.97671 18.0444V20.5466C6.97671 20.8759 7.2266 21.1429 7.53486 21.1429H8.65112C10.8837 21.1429 13.1163 21.1429 15.3489 21.1429H16.4651C16.7734 21.1429 17.0233 20.8759 17.0233 20.5466V18.0444C18.8366 16.4785 20 14.0888 20 11.4038C19.9999 6.62532 16.3292 2.76279 11.8359 2.85893Z" stroke="#5F6172" stroke-width="1.5"/>
<ellipse cx="8.57136" cy="10.8572" rx="2.28571" ry="2.28571" stroke="#5F6172" stroke-width="1.5"/>
<circle cx="15.4285" cy="10.8572" r="2.28571" stroke="#5F6172" stroke-width="1.5"/>
<path d="M10.2859 18.8572V20.5715" stroke="#5F6172" stroke-width="1.5" stroke-linecap="round"/>
<path d="M13.7144 18.8572V20.5715" stroke="#5F6172" stroke-width="1.5" stroke-linecap="round"/>
</svg>
